<svg width="64" height="64" viewBox="0 0 64 64" fill="none" xmlns="http://www.w3.org/2000/svg">
<path d="M56 0C56.5304 0 57.0391 0.210714 57.4142 0.585786C57.7893 0.960859 58 1.46957 58 2V8H60C61.0609 8 62.0783 8.42143 62.8284 9.17157C63.5786 9.92172 64 10.9391 64 12V20H0V12C0 10.9391 0.421427 9.92172 1.17157 9.17157C1.92172 8.42143 2.93913 8 4 8H54V2C54 1.46957 54.2107 0.960859 54.5858 0.585786C54.9609 0.210714 55.4696 0 56 0ZM8 14C8 14.5304 8.21071 15.0391 8.58579 15.4142C8.96086 15.7893 9.46957 16 10 16C10.5304 16 11.0391 15.7893 11.4142 15.4142C11.7893 15.0391 12 14.5304 12 14C12 13.4696 11.7893 12.9609 11.4142 12.5858C11.0391 12.2107 10.5304 12 10 12C9.46957 12 8.96086 12.2107 8.58579 12.5858C8.21071 12.9609 8 13.4696 8 14ZM16 14C16 14.5304 16.2107 15.0391 16.5858 15.4142C16.9609 15.7893 17.4696 16 18 16C18.5304 16 19.0391 15.7893 19.4142 15.4142C19.7893 15.0391 20 14.5304 20 14C20 13.4696 19.7893 12.9609 19.4142 12.5858C19.0391 12.2107 18.5304 12 18 12C17.4696 12 16.9609 12.2107 16.5858 12.5858C16.2107 12.9609 16 13.4696 16 14ZM46 16C46.5304 16 47.0391 15.7893 47.4142 15.4142C47.7893 15.0391 48 14.5304 48 14C48 13.4696 47.7893 12.9609 47.4142 12.5858C47.0391 12.2107 46.5304 12 46 12C45.4696 12 44.9609 12.2107 44.5858 12.5858C44.2107 12.9609 44 13.4696 44 14C44 14.5304 44.2107 15.0391 44.5858 15.4142C44.9609 15.7893 45.4696 16 46 16ZM52 14C52 14.5304 52.2107 15.0391 52.5858 15.4142C52.9609 15.7893 53.4696 16 54 16C54.5304 16 55.0391 15.7893 55.4142 15.4142C55.7893 15.0391 56 14.5304 56 14C56 13.4696 55.7893 12.9609 55.4142 12.5858C55.0391 12.2107 54.5304 12 54 12C53.4696 12 52.9609 12.2107 52.5858 12.5858C52.2107 12.9609 52 13.4696 52 14ZM38 12H26C25.4696 12 24.9609 12.2107 24.5858 12.5858C24.2107 12.9609 24 13.4696 24 14C24 14.5304 24.2107 15.0391 24.5858 15.4142C24.9609 15.7893 25.4696 16 26 16H38C38.5304 16 39.0391 15.7893 39.4142 15.4142C39.7893 15.0391 40 14.5304 40 14C40 13.4696 39.7893 12.9609 39.4142 12.5858C39.0391 12.2107 38.5304 12 38 12ZM24 42C24 43.5913 23.3679 45.1174 22.2426 46.2426C21.1174 47.3679 19.5913 48 18 48C16.4087 48 14.8826 47.3679 13.7574 46.2426C12.6321 45.1174 12 43.5913 12 42C12 40.4087 12.6321 38.8826 13.7574 37.7574C14.8826 36.6321 16.4087 36 18 36C19.5913 36 21.1174 36.6321 22.2426 37.7574C23.3679 38.8826 24 40.4087 24 42ZM18 44C18.5304 44 19.0391 43.7893 19.4142 43.4142C19.7893 43.0391 20 42.5304 20 42C20 41.4696 19.7893 40.9609 19.4142 40.5858C19.0391 40.2107 18.5304 40 18 40C17.4696 40 16.9609 40.2107 16.5858 40.5858C16.2107 40.9609 16 41.4696 16 42C16 42.5304 16.2107 43.0391 16.5858 43.4142C16.9609 43.7893 17.4696 44 18 44ZM46 48C47.5913 48 49.1174 47.3679 50.2426 46.2426C51.3679 45.1174 52 43.5913 52 42C52 40.4087 51.3679 38.8826 50.2426 37.7574C49.1174 36.6321 47.5913 36 46 36C44.4087 36 42.8826 36.6321 41.7574 37.7574C40.6321 38.8826 40 40.4087 40 42C40 43.5913 40.6321 45.1174 41.7574 46.2426C42.8826 47.3679 44.4087 48 46 48ZM48 42C48 42.5304 47.7893 43.0391 47.4142 43.4142C47.0391 43.7893 46.5304 44 46 44C45.4696 44 44.9609 43.7893 44.5858 43.4142C44.2107 43.0391 44 42.5304 44 42C44 41.4696 44.2107 40.9609 44.5858 40.5858C44.9609 40.2107 45.4696 40 46 40C46.5304 40 47.0391 40.2107 47.4142 40.5858C47.7893 40.9609 48 41.4696 48 42Z" fill="#F5EDED"/>
<path d="M0 24H64V56C64 57.0609 63.5786 58.0783 62.8284 58.8284C62.0783 59.5786 61.0609 60 60 60H4C2.93913 60 1.92172 59.5786 1.17157 58.8284C0.421427 58.0783 0 57.0609 0 56V24ZM8 42C8 44.6522 9.05357 47.1957 10.9289 49.0711C12.8043 50.9464 15.3478 52 18 52C20.6522 52 23.1957 50.9464 25.0711 49.0711C26.9464 47.1957 28 44.6522 28 42C28 39.3478 26.9464 36.8043 25.0711 34.9289C23.1957 33.0536 20.6522 32 18 32C15.3478 32 12.8043 33.0536 10.9289 34.9289C9.05357 36.8043 8 39.3478 8 42ZM36 42C36 44.6522 37.0536 47.1957 38.9289 49.0711C40.8043 50.9464 43.3478 52 46 52C48.6522 52 51.1957 50.9464 53.0711 49.0711C54.9464 47.1957 56 44.6522 56 42C56 39.3478 54.9464 36.8043 53.0711 34.9289C51.1957 33.0536 48.6522 32 46 32C43.3478 32 40.8043 33.0536 38.9289 34.9289C37.0536 36.8043 36 39.3478 36 42Z" fill="#F5EDED"/>
</svg>
