<svg width="64" height="64" viewBox="0 0 64 64" fill="none" xmlns="http://www.w3.org/2000/svg">
<path d="M32.204 7.99597H32.56C35.848 8.00797 52.508 8.12797 57 9.33597C58.358 9.70465 59.5954 10.4233 60.5886 11.42C61.5819 12.4167 62.2961 13.6567 62.66 15.016C63.064 16.536 63.348 18.548 63.54 20.624L63.58 21.04L63.668 22.08L63.7 22.496C63.96 26.152 63.992 29.576 63.996 30.324V30.624C63.992 31.4 63.956 35.056 63.668 38.864L63.636 39.284L63.6 39.7C63.4 41.988 63.104 44.26 62.66 45.932C62.2961 47.2912 61.5819 48.5312 60.5886 49.5279C59.5954 50.5247 58.358 51.2433 57 51.612C52.36 52.86 34.724 52.948 32.28 52.952H31.712C30.476 52.952 25.364 52.928 20.004 52.744L19.324 52.72L18.976 52.704L18.292 52.676L17.608 52.648C13.168 52.452 8.94 52.136 6.992 51.608C5.63451 51.2396 4.3974 50.5216 3.4042 49.5256C2.41101 48.5296 1.69649 47.2905 1.332 45.932C0.888 44.264 0.592 41.988 0.392 39.7L0.36 39.28L0.328 38.864C0.129454 36.1536 0.0200613 33.4375 0 30.72L0 30.228C0.008 29.368 0.04 26.396 0.256 23.116L0.284 22.704L0.296 22.496L0.328 22.08L0.416 21.04L0.456 20.624C0.648 18.548 0.932 16.532 1.336 15.016C1.69988 13.6567 2.41413 12.4167 3.40736 11.42C4.40059 10.4233 5.63803 9.70465 6.996 9.33597C8.944 8.81597 13.172 8.49597 17.612 8.29597L18.292 8.26797L18.98 8.24397L19.324 8.23197L20.008 8.20397C23.8148 8.08159 27.6232 8.01358 31.432 7.99997L32.204 7.99597ZM25.6 20.836V40.108L42.228 30.476L25.6 20.836Z" fill="#F5EDED"/>
</svg>
