<svg width="72" height="72" viewBox="0 0 72 72" fill="none" xmlns="http://www.w3.org/2000/svg">
<g clip-path="url(#clip0_86_6)">
<path d="M65.25 13.5C65.8467 13.5 66.419 13.7371 66.841 14.159C67.2629 14.581 67.5 15.1533 67.5 15.75V56.25C67.5 56.8467 67.2629 57.419 66.841 57.841C66.419 58.2629 65.8467 58.5 65.25 58.5H6.75C6.15326 58.5 5.58097 58.2629 5.15901 57.841C4.73705 57.419 4.5 56.8467 4.5 56.25V15.75C4.5 15.1533 4.73705 14.581 5.15901 14.159C5.58097 13.7371 6.15326 13.5 6.75 13.5H65.25ZM6.75 9C4.95979 9 3.2429 9.71116 1.97703 10.977C0.711159 12.2429 0 13.9598 0 15.75L0 56.25C0 58.0402 0.711159 59.7571 1.97703 61.023C3.2429 62.2888 4.95979 63 6.75 63H65.25C67.0402 63 68.7571 62.2888 70.023 61.023C71.2888 59.7571 72 58.0402 72 56.25V15.75C72 13.9598 71.2888 12.2429 70.023 10.977C68.7571 9.71116 67.0402 9 65.25 9H6.75Z" fill="#F5EDED"/>
<path d="M31.4997 24.75C31.4997 24.1533 31.7368 23.581 32.1587 23.159C32.5807 22.737 33.153 22.5 33.7497 22.5H56.2497C56.8465 22.5 57.4188 22.737 57.8407 23.159C58.2627 23.581 58.4997 24.1533 58.4997 24.75C58.4997 25.3467 58.2627 25.919 57.8407 26.341C57.4188 26.7629 56.8465 27 56.2497 27H33.7497C33.153 27 32.5807 26.7629 32.1587 26.341C31.7368 25.919 31.4997 25.3467 31.4997 24.75ZM24.7677 20.907C24.9773 21.116 25.1435 21.3643 25.2569 21.6376C25.3704 21.911 25.4287 22.204 25.4287 22.5C25.4287 22.7959 25.3704 23.089 25.2569 23.3623C25.1435 23.6357 24.9773 23.884 24.7677 24.093L18.0177 30.843C17.8087 31.0525 17.5604 31.2188 17.2871 31.3322C17.0137 31.4456 16.7207 31.504 16.4247 31.504C16.1288 31.504 15.8357 31.4456 15.5624 31.3322C15.289 31.2188 15.0407 31.0525 14.8317 30.843L12.5817 28.593C12.3725 28.3838 12.2066 28.1354 12.0934 27.8621C11.9801 27.5888 11.9219 27.2958 11.9219 27C11.9219 26.4025 12.1592 25.8295 12.5817 25.407C13.0042 24.9845 13.5772 24.7471 14.1747 24.7471C14.7722 24.7471 15.3452 24.9845 15.7677 25.407L16.4247 26.0685L21.5817 20.907C21.7907 20.6975 22.039 20.5312 22.3124 20.4178C22.5857 20.3044 22.8788 20.246 23.1747 20.246C23.4707 20.246 23.7637 20.3044 24.0371 20.4178C24.3104 20.5312 24.5587 20.6975 24.7677 20.907ZM31.4997 42.75C31.4997 42.1533 31.7368 41.581 32.1587 41.159C32.5807 40.737 33.153 40.5 33.7497 40.5H56.2497C56.8465 40.5 57.4188 40.737 57.8407 41.159C58.2627 41.581 58.4997 42.1533 58.4997 42.75C58.4997 43.3467 58.2627 43.919 57.8407 44.341C57.4188 44.7629 56.8465 45 56.2497 45H33.7497C33.153 45 32.5807 44.7629 32.1587 44.341C31.7368 43.919 31.4997 43.3467 31.4997 42.75ZM24.7677 38.907C24.9773 39.116 25.1435 39.3643 25.2569 39.6376C25.3704 39.911 25.4287 40.204 25.4287 40.5C25.4287 40.7959 25.3704 41.089 25.2569 41.3623C25.1435 41.6357 24.9773 41.884 24.7677 42.093L18.0177 48.843C17.8087 49.0525 17.5604 49.2188 17.2871 49.3322C17.0137 49.4456 16.7207 49.504 16.4247 49.504C16.1288 49.504 15.8357 49.4456 15.5624 49.3322C15.289 49.2188 15.0407 49.0525 14.8317 48.843L12.5817 46.593C12.3725 46.3838 12.2066 46.1354 12.0934 45.8621C11.9801 45.5888 11.9219 45.2958 11.9219 45C11.9219 44.7041 11.9801 44.4112 12.0934 44.1379C12.2066 43.8645 12.3725 43.6162 12.5817 43.407C12.7909 43.1978 13.0393 43.0319 13.3126 42.9186C13.5859 42.8054 13.8789 42.7472 14.1747 42.7472C14.4706 42.7472 14.7635 42.8054 15.0368 42.9186C15.3102 43.0319 15.5585 43.1978 15.7677 43.407L16.4247 44.0685L21.5817 38.907C21.7907 38.6975 22.039 38.5312 22.3124 38.4178C22.5857 38.3044 22.8788 38.246 23.1747 38.246C23.4707 38.246 23.7637 38.3044 24.0371 38.4178C24.3104 38.5312 24.5587 38.6975 24.7677 38.907Z" fill="#F5EDED"/>
</g>
<defs>
<clipPath id="clip0_86_6">
<rect width="72" height="72" fill="white"/>
</clipPath>
</defs>
</svg>
