<svg width="72" height="72" viewBox="0 0 72 72" fill="none" xmlns="http://www.w3.org/2000/svg">
<g clip-path="url(#clip0_86_14)">
<path d="M1.35283e-05 11.25C1.35283e-05 9.45979 0.711172 7.7429 1.97704 6.47703C3.24291 5.21116 4.9598 4.5 6.75001 4.5H56.25C58.0402 4.5 59.7571 5.21116 61.023 6.47703C62.2889 7.7429 63 9.45979 63 11.25V58.626C63 59.976 62.775 61.569 61.929 63H65.25C65.8467 63 66.419 62.7629 66.841 62.341C67.263 61.919 67.5 61.3467 67.5 60.75V20.25C67.5 19.6533 67.7371 19.081 68.159 18.659C68.581 18.2371 69.1533 18 69.75 18C70.3467 18 70.919 18.2371 71.341 18.659C71.763 19.081 72 19.6533 72 20.25V60.75C72 62.5402 71.2889 64.2571 70.023 65.523C68.7571 66.7888 67.0402 67.5 65.25 67.5H6.73651C5.85073 67.5 4.97364 67.3253 4.15544 66.9859C3.33725 66.6465 2.59403 66.1491 1.96831 65.5222C1.34259 64.8952 0.846665 64.151 0.508919 63.3321C0.171173 62.5132 -0.0017616 61.6358 1.35283e-05 60.75V11.25ZM54 63C55.665 63 56.943 62.0505 57.8385 61.0155C58.2525 60.5385 58.5 59.76 58.5 58.626V11.25C58.5 10.6533 58.263 10.081 57.841 9.65901C57.419 9.23705 56.8467 9 56.25 9H6.75001C6.15328 9 5.58098 9.23705 5.15902 9.65901C4.73707 10.081 4.50001 10.6533 4.50001 11.25V60.75C4.50001 62.001 5.50351 63 6.73651 63H54Z" fill="#F5EDED"/>
<path d="M9 13.5H54V22.5H9V13.5ZM9 27H27V40.5H9V27ZM9 45H27V49.5H9V45ZM9 54H27V58.5H9V54ZM31.5 27H40.5V31.5H31.5V27ZM45 27H54V31.5H45V27ZM31.5 36H40.5V40.5H31.5V36ZM45 36H54V40.5H45V36ZM31.5 45H40.5V49.5H31.5V45ZM45 45H54V49.5H45V45ZM31.5 54H40.5V58.5H31.5V54ZM45 54H54V58.5H45V54Z" fill="#F5EDED"/>
</g>
<defs>
<clipPath id="clip0_86_14">
<rect width="72" height="72" fill="white"/>
</clipPath>
</defs>
</svg>
